<?xml version="1.0" encoding="iso-8859-1"?>
<!-- Uploaded to: SVG Repo, www.svgrepo.com, Generator: SVG Repo Mixer Tools -->
<svg height="800px" width="800px" version="1.1" id="Layer_1" xmlns="http://www.w3.org/2000/svg" xmlns:xlink="http://www.w3.org/1999/xlink" 
	 viewBox="0 0 512 512" xml:space="preserve">
<path style="fill:#E7B3A8;" d="M147.429,234.468L125.598,256.3c1.019,1.869,2.029,3.886,3.175,5.923
	c10.393,18.741,24.553,44.386,51.541,71.374c27.056,27.047,52.712,41.304,71.454,51.689c1.97,1.12,3.258,1.577,5.101,2.595
	l19.248-20.48l2.122-2.122c16.226-16.226,42.533-16.226,58.759,0l43.353,43.353c16.317,16.317,16.212,42.803-0.233,58.99
	l-8.664,8.528c-7.103,5.554-15.364,10.265-24.175,13.716c-8.415,3.19-16.472,5.23-24.492,6.112
	c-64.427,7.792-123.32-21.643-203.232-101.522C9.135,284.008,17.439,194.999,17.869,191.154c0.985-8.349,2.983-16.364,6.139-24.517
	c3.417-8.744,8.199-17.077,13.753-24.146l8.522-8.667c16.185-16.46,42.683-16.572,59.005-0.249l42.138,42.138
	C163.652,191.936,163.654,218.243,147.429,234.468z"/>
<g>
	<path style="fill:#4C213A;" d="M303.066,512c-60.891,0-118.904-32.02-193.983-107.067c-47.684-47.697-79.999-97.356-96.048-147.598
		c-12.574-39.362-10.199-65.029-9.886-67.827c1.146-9.719,3.448-18.918,7.045-28.217c3.919-10.03,9.418-19.679,15.92-27.953
		c0.339-0.431,0.702-0.841,1.086-1.234l8.523-8.669c10.68-10.862,24.953-16.844,40.187-16.844c15.053,0,29.206,5.864,39.851,16.508
		l42.138,42.138c21.973,21.974,21.974,57.729,0.001,79.702l-14.005,14.008c9.757,17.512,23.18,40.467,46.89,64.177
		c23.312,23.304,45.698,36.667,63.043,46.365l11.493-12.231c0.105-0.111,0.212-0.221,0.32-0.33l2.122-2.122
		c10.646-10.644,24.799-16.508,39.852-16.508c15.055,0,29.208,5.863,39.852,16.508l43.354,43.354
		c10.705,10.705,16.567,24.938,16.508,40.077c-0.061,15.138-6.035,29.322-16.823,39.941l-8.663,8.528
		c-0.401,0.395-0.825,0.767-1.266,1.114c-8.236,6.44-17.882,11.917-27.899,15.838c-0.05,0.019-0.101,0.039-0.153,0.058
		c-9.698,3.676-18.87,5.958-28.036,6.976C317.297,511.56,310.089,512,303.066,512z M48.924,152.262
		c-4.523,5.884-8.361,12.702-11.123,19.766c-2.669,6.899-4.382,13.738-5.224,20.862c-0.012,0.12-2.202,21.452,8.715,55.56
		c10.047,31.39,33.601,80.386,88.736,135.539c68.994,68.964,120.743,98.393,173.038,98.393c5.863,0,11.9-0.372,17.942-1.102
		c0.052-0.006,0.104-0.012,0.155-0.018c6.656-0.733,13.457-2.438,20.79-5.212c7.091-2.786,13.898-6.604,19.741-11.071l8.033-7.909
		c5.118-5.039,7.953-11.767,7.983-18.95c0.028-7.182-2.752-13.934-7.832-19.012l-43.354-43.354
		c-5.049-5.05-11.764-7.832-18.907-7.832s-13.857,2.781-18.909,7.832l-1.956,1.958l-19.091,20.314
		c-4.636,4.932-12.025,6.093-17.952,2.821c-0.576-0.318-1.074-0.548-1.573-0.785c-0.955-0.458-2.137-1.02-3.609-1.853
		c-19.461-10.784-46.095-25.554-74.687-54.137c-28.318-28.318-43.078-54.934-53.854-74.367l-0.166-0.299
		c-0.705-1.253-1.403-2.574-2.079-3.86c-0.388-0.736-0.767-1.459-1.148-2.159c-3.141-5.767-2.112-12.913,2.533-17.556l21.829-21.832
		c10.424-10.425,10.424-27.388-0.001-37.813l-42.138-42.14c-5.049-5.05-11.763-7.832-18.906-7.832
		c-7.228,0-13.999,2.839-19.067,7.992L48.924,152.262z"/>
	<path style="fill:#4C213A;" d="M369.328,205.587c-8.178,0-14.811-6.632-14.811-14.811V97.963c0-8.178,6.632-14.811,14.811-14.811
		s14.811,6.632,14.811,14.811v92.813C384.139,198.955,377.507,205.587,369.328,205.587z"/>
	<path style="fill:#4C213A;" d="M415.734,159.18h-92.81c-8.178,0-14.811-6.632-14.811-14.811s6.632-14.811,14.811-14.811h92.81
		c8.178,0,14.811,6.632,14.811,14.811S423.913,159.18,415.734,159.18z"/>
	<path style="fill:#4C213A;" d="M365.87,286.762c-8.962,0-17.922-0.832-26.647-2.472c-8.039-1.512-13.331-9.254-11.819-17.293
		c1.512-8.042,9.274-13.328,17.293-11.819c7.211,1.357,14.593,2.023,22.056,1.958c62.23-0.48,112.858-51.51,112.858-113.757
		c0-62.72-51.025-113.753-113.745-113.76c-0.004,0-0.01,0-0.015,0c-61.83,0-112.855,50.272-113.748,112.073
		c-0.283,19.621,4.496,39.024,13.827,56.111c1.823,3.34,2.291,7.254,1.306,10.93l-7.142,26.656l13.152-3.523
		c7.9-2.118,16.021,2.573,18.138,10.473c2.118,7.901-2.571,16.021-10.473,18.138l-31.369,8.405
		c-6.446,1.727-13.38-0.133-18.097-4.85s-6.573-11.651-4.845-18.097l10.536-39.324c-9.929-20.206-14.982-42.669-14.655-65.347
		c0.548-37.939,15.713-73.474,42.699-100.057C292.158,14.636,327.91,0,365.849,0c0.007,0,0.01,0,0.018,0
		C444.918,0.01,509.23,64.331,509.23,143.381c0,38.226-14.734,74.128-41.489,101.097c-26.757,26.97-62.542,41.986-100.764,42.281
		C366.609,286.761,366.239,286.762,365.87,286.762z"/>
</g>
</svg>