<svg xmlns="http://www.w3.org/2000/svg" width="20" height="36" viewBox="0 0 20 36"><path d="M17,21.274a8.677,8.677,0,0,1,2.657-6.816,5.571,5.571,0,0,0-4.5-3.585c-1.886-.225-3.948,1.664-4.7,1.664-.8,0-2.625-1.583-4.06-1.583C3.432,11.027.281,14.531.281,21.66a29.425,29.425,0,0,0,.765,6.526c.68,2.95,3.135,10.183,5.7,10.063C8.081,38.2,9.027,36.81,10.77,36.81c1.69,0,2.566,1.439,4.06,1.439,2.582-.056,4.8-6.631,5.452-9.588C16.817,26.193,17,21.427,17,21.274ZM14,8.077A10.459,10.459,0,0,0,15.271,2.25a5.37,5.37,0,0,0-3.608,2.8,10.3,10.3,0,0,0-1.36,5.779c1.387.161,2.651-.916,3.693-2.757Z" transform="translate(-0.281 -2.25)" fill="#099"/></svg>