<svg xmlns="http://www.w3.org/2000/svg" xmlns:xlink="http://www.w3.org/1999/xlink" width="25" height="25"><defs><linearGradient id="a"><stop offset="0" stop-color="#ff1679"/><stop offset="1" stop-color="#ff770b"/></linearGradient><linearGradient id="b" x1="992.183" x2="1019.298" y1="516.081" y2="545.959" gradientTransform="translate(-793.076 614.331) scale(.80097)" gradientUnits="userSpaceOnUse" xlink:href="#a"/></defs><g transform="translate(0 -1027.362)"><rect width="25" height="25" y="1027.362" fill="url(#b)" rx="5.283" ry="5.283"/><path fill="#fff" style="text-indent:0;text-align:start;line-height:normal;text-transform:none;block-progression:tb" d="M12.5 1033.362a6.497 6.497 0 0 0-6.5 6.5v6a.5.5 0 0 0 .5.5h2c.453 0 .862-.171 1.125-.469.263-.297.375-.683.375-1.062v-2.969c0-.365-.111-.717-.344-1a1.365 1.365 0 0 0-1.031-.5H7v-.5c0-3.056 2.444-5.5 5.5-5.5s5.5 2.444 5.5 5.5v.5h-1.625c-.42 0-.799.217-1.031.5a1.556 1.556 0 0 0-.344 1v2.969c0 .379.112.765.375 1.063.263.297.672.468 1.125.468h2a.5.5 0 0 0 .5-.5v-2.375a.5.5 0 0 0 0-.03v-3.595c0-3.592-2.908-6.5-6.5-6.5zm-5.5 8h1.625c.11 0 .178.068.25.156a.544.544 0 0 1 .125.344v2.969c0 .188-.057.329-.125.406-.068.077-.152.125-.375.125H7v-1.969a.5.5 0 0 0 0-.03v-2zm9.375 0H18v4h-1.5c-.223 0-.307-.047-.375-.125-.068-.077-.125-.218-.125-.406v-2.969c0-.135.053-.256.125-.344.072-.087.14-.156.25-.156z" color="#000" font-family="sans-serif" font-weight="400" overflow="visible"/></g></svg>